<?xml version="1.0" encoding="UTF-8"?><svg id="Ebene_2" xmlns="http://www.w3.org/2000/svg" viewBox="0 0 2564.26 995.84"><defs><style>.cls-1{fill:#fff;}</style></defs><g id="Ebene_1-2"><path class="cls-1" d="M0,16.85v589.46h23.58v-286.31h214.73l482.51,286.31h45.48l-505.25-298.1L757.03,16.86h-42.95L237.47,296.42H23.58V16.86H0h0ZM1414.68,0c-218.09,0-329.25,48-384.83,103.58-51.37,51.36-75.78,123.78-75.78,207.99s23.57,156.62,74.94,207.99c55.58,55.58,167.58,103.58,385.67,103.58s329.26-48.83,384.83-104.41c51.37-51.37,75.79-123.79,75.79-207.16s-23.58-157.47-74.94-208.83C1744.78,47.16,1632.78,0,1414.69,0M1414.68,23.58c203.79,0,312.41,41.26,366.3,95.15,47.16,47.16,69.05,106.1,69.05,192.84s-25.26,147.36-70.74,192.83c-52.21,52.21-161.68,95.16-364.62,95.16s-313.26-42.95-365.46-95.16c-45.48-45.47-69.9-106.09-69.9-192.83s22.74-145.68,69.9-192.84c53.89-53.89,161.68-95.15,365.46-95.15M2216.33,16.85h-24.43v589.46h24.43V16.85Z"/><path class="cls-1" d="M2552.21,107.42h-57v-41.43c0-20.82,3.94-31.68,8.98-36.72,4.5-4.6,10.63-7.12,19.52-7.12s15.02,2.52,19.51,7.12c5.04,5.04,8.99,15.9,8.99,36.72v41.43ZM2523.71,10.2c-10.41,0-19.19,3.07-26.09,9.97-6.25,6.25-12.27,18.86-12.27,45.6v53.49h76.73v-53.49c0-26.74-6.03-39.35-12.28-45.6-6.91-6.91-15.68-9.97-26.09-9.97M2492.69,205.64c0-22.91,4.72-34.97,10.52-40.77,4.82-4.83,10.85-7.57,20.5-7.57s15.78,2.74,20.49,7.46c5.81,5.81,10.52,17.98,10.52,40.88s-4.93,35.08-10.52,40.66c-4.93,4.94-10.85,7.57-20.49,7.57s-15.68-2.52-20.61-7.46c-5.81-5.81-10.41-17.98-10.41-40.77M2483.15,205.64c0,28.5,6.25,42.86,13.59,50.2,6.8,6.8,15.57,9.97,26.97,9.97s20.17-3.18,26.96-9.97c7.24-7.24,13.59-21.7,13.59-50.2s-6.36-43.08-13.7-50.31c-6.69-6.8-15.57-9.97-26.86-9.97s-20.28,3.18-26.97,9.86c-7.35,7.35-13.59,21.81-13.59,50.42M2492.69,346.49c0-22.91,4.72-34.97,10.52-40.78,4.82-4.82,10.85-7.56,20.5-7.56s15.78,2.74,20.49,7.46c5.81,5.81,10.52,17.98,10.52,40.88s-4.93,35.08-10.52,40.66c-4.93,4.93-10.85,7.57-20.49,7.57s-15.68-2.52-20.61-7.46c-5.81-5.81-10.41-17.98-10.41-40.77M2483.15,346.49c0,28.5,6.25,42.86,13.59,50.2,6.8,6.8,15.57,9.97,26.97,9.97s20.17-3.18,26.96-9.97c7.24-7.24,13.59-21.7,13.59-50.2s-6.36-43.08-13.7-50.31c-6.69-6.8-15.57-9.97-26.86-9.97s-20.28,3.18-26.97,9.86c-7.35,7.35-13.59,21.81-13.59,50.42M2519.87,510.8h-24.66v-84.4h-9.86v96.24h76.73v-11.84h-32.56v-82.87h-9.64v82.87h-.01Z"/><path class="cls-1" d="M2386.91,98.11h-23.24V11.29h-9.86v98.54h76.73V11.29h-9.86v86.82h-24.12V12.83h-9.64v85.28h0ZM2422.75,186.24c0,19.51-4.38,42.42-9.64,54.26h10.3c5.04-12.17,8.66-32.34,8.66-54.26,0-29.81-4.71-39.9-9.75-44.83-3.84-3.84-8.88-5.15-14.14-5.15-4.93,0-9.53,1.31-12.6,4.49-4.93,4.93-7.46,13.15-9.1,46.15-1.31,27.19-2.96,34.09-5.92,37.05-1.42,1.42-3.51,2.19-6.25,2.19s-5.15-.77-6.91-2.52c-3.29-3.29-5.81-10.85-5.81-33.32,0-17.43,3.51-35.95,8.11-47.9h-10.3c-3.73,10.19-7.02,26.86-7.02,47.9,0,26.31,3.73,37.38,8.99,42.64,3.84,3.83,8.77,5.04,14.03,5.04,4.82,0,9.1-1.21,12.06-4.28,4.93-4.93,7.56-14.8,9.09-45.38,1.42-29.59,3.07-35.07,5.81-37.82,1.86-1.86,4.27-2.41,6.91-2.41s5.26.76,7.34,2.85c3.18,3.18,6.14,10.52,6.14,35.3M2386.91,349.34h-23.24v-86.81h-9.86v98.54h76.73v-98.54h-9.86v86.81h-24.12v-85.28h-9.64v85.28h0ZM2353.81,484.6v17.32h76.73v-11.73h-67.09l67.09-80.67v-16.66h-76.73v11.84h66.43l-66.43,79.91h0ZM2360.06,585.56l41.43-29.27v58.75l-41.43-29.48ZM2353.37,593.34l77.17,55.36v-13.15l-19.3-13.59v-72.56l19.3-13.7v-13.81l-77.17,55.36v16.11-.02ZM2394.26,743.84h-30.69v-50.53c0-15.67,1.86-21.7,4.93-24.77,2.85-2.85,6.14-3.84,10.41-3.84s7.67.99,10.41,3.84c3.18,3.07,4.93,9.1,4.93,24.77v50.53h.01ZM2353.81,755.68h76.73v-11.84h-26.53v-49.87c0-22.03-3.29-29.92-8.55-35.19-4.38-4.38-10.08-5.92-16.66-5.92s-12.28,1.42-16.55,5.7c-5.37,5.37-8.44,13.04-8.44,35.19v61.93ZM2360.06,839.31l41.43-29.26v58.75l-41.43-29.48h0ZM2353.37,847.09l77.17,55.36v-13.15l-19.3-13.59v-72.56l19.3-13.7v-13.81l-77.17,55.36v16.11-.02ZM2353.81,927.44h40.67c9.42,0,15.78,1.09,20.38,5.59,4.6,4.6,7.02,12.16,7.02,22.69,0,14.36-3.95,29.15-9.1,40.12h10.74c4.49-10.52,8.11-25.21,8.11-39.9,0-16.44-3.94-26.09-9.97-32.12-6.91-6.91-15.24-8.22-27.62-8.22h-40.23v11.84h0Z"/></g></svg>