<svg id="Ebene_1" data-name="Ebene 1" xmlns="http://www.w3.org/2000/svg" viewBox="0 0 297.25 288"><defs><style>.cls-1{fill:#1a1a1a;}</style></defs><title>oskarmaria buttons_5</title><path class="cls-1" d="M206.82,462a20.69,20.69,0,0,1,3.26.62c1.48.37,1.72.92,1.85,3.14.06,1.11.06,6.58.06,12.18,0,7,0,13.72-.06,14.89-.18,2.15-.62,3-2.09,3.32a32.3,32.3,0,0,1-4.68.62,2.23,2.23,0,0,0,.06,1.78c2.52,0,5.6-.18,9.72-.18,6.4,0,10.83.25,16,.25,3.08,0,3.45-.31,3.81-1a42.84,42.84,0,0,0,2.58-8.43,3.37,3.37,0,0,0-1.78-.68,24.6,24.6,0,0,1-3.08,5.41c-1.11,1.42-1.91,2-4.55,2a76.18,76.18,0,0,1-9.11-.37,2.37,2.37,0,0,1-1.42-2.34c-.12-3-.12-9.48-.12-12.31,0-.18.18-.49.31-.49,2.28-.06,7.38-.06,9.23.12a2.14,2.14,0,0,1,2.09,1.78,13,13,0,0,1,.49,2.52,2.49,2.49,0,0,0,2.09-.06c-.06-1.54-.12-3.32-.12-5.6a43.83,43.83,0,0,1,.43-5.78,2.86,2.86,0,0,0-2-.18,17.38,17.38,0,0,1-.68,2.46,2.19,2.19,0,0,1-2.09,1.85c-2.22.18-7,.18-9.41.12-.18,0-.31-.25-.31-.43,0-2.77,0-9.6.06-13,0-.31.31-1,.74-1.17.8-.06,8.24-.06,9.41,0,2,.18,2.58.86,3.08,2.34a22.15,22.15,0,0,1,.68,3.75,2.59,2.59,0,0,0,1.91-.12,62.47,62.47,0,0,1,1.11-8.43c0-.06-.18-.25-.25-.31-1.29.18-4.49.25-6.83.25H215.06c-3.45,0-6.65-.25-8.18-.25-.25.31-.37,1.48-.06,1.72Zm72,.06c1.23.12,2.4.31,3.32.49,1.54.37,2,1.11,2,2.83.06,1.91.06,8.06.06,14.34,0,3.38-.06,11.75-.12,13.17-.12,2.34-.62,3.08-2.09,3.38-.8.18-1.78.31-3.14.49a1.84,1.84,0,0,0,0,1.78c1.17,0,3.81-.18,7.81-.18s7,.18,8.18.18c.31-.25.43-1.54.12-1.78-1.42-.18-2.52-.37-3.45-.55-1.42-.31-1.85-.86-2-3s-.12-7.75-.12-11.14c0-.06.12-.37.25-.37.86,0,3.51-.06,4.37.06a2,2,0,0,1,1.54.92c2.34,3.32,6.09,9.48,8.43,12.24a8.43,8.43,0,0,0,3,2.46c2.28,1.11,7.2,1.29,9.84,1.17.37-.12.49-1.54.37-1.72-3.69-.49-4.55-.8-7.08-3.38a101.71,101.71,0,0,1-10-13.29.41.41,0,0,1,.12-.43c3.69-1.66,7-4.74,7-9.91s-3.81-9.48-11-9.48c-2.46,0-5.66.12-10.21.12-1.91,0-5.6-.18-7.08-.18a2.08,2.08,0,0,0-.12,1.72Zm13.35.43c6.58,0,9.54,3.38,9.54,9.17,0,4-2,6.21-4,7.14-1.17.49-3.81.62-7.94.49a.33.33,0,0,1-.31-.31c0-4.8,0-13.17.12-15.26a1.45,1.45,0,0,1,.43-.92,7,7,0,0,1,2.15-.31Zm64.3-.43a24.84,24.84,0,0,1,3.75.68c1.29.37,1.42,1.29,1.54,2.83.18,2.89.18,6.89.18,11.94,0,8.06,0,14.4-.25,16.12-.12,1.42-.37,2.28-2.15,2.65a16.83,16.83,0,0,1-3.14.49c-.25.18-.25,1.6.06,1.78,2,0,5-.18,8.55-.18,3,0,6.46.18,7.94.18a2.25,2.25,0,0,0,.12-1.78,27.27,27.27,0,0,1-3.63-.62c-1.85-.43-2.09-1.48-2.15-3.26-.12-2.15-.12-8.06-.12-14.15,0-5.35-.06-10.52.12-13.11.12-1.91.37-2.71,1.78-3.08.74-.18,1.78-.31,3.14-.49a2.74,2.74,0,0,0-.06-1.72c-1.54,0-4.43.18-7.63.18s-6.71-.18-8-.18a2.37,2.37,0,0,0-.06,1.72Zm55.93-.06a20.68,20.68,0,0,1,3.26.62c1.48.37,1.72.92,1.85,3.14.06,1.11.06,6.58.06,12.18,0,7,0,13.72-.06,14.89-.18,2.15-.62,3-2.09,3.32a32.3,32.3,0,0,1-4.68.62,2.23,2.23,0,0,0,.06,1.78c2.52,0,5.6-.18,9.72-.18,6.4,0,10.83.25,16,.25,3.08,0,3.45-.31,3.81-1a42.84,42.84,0,0,0,2.58-8.43,3.37,3.37,0,0,0-1.78-.68A24.6,24.6,0,0,1,438.1,494c-1.11,1.42-1.91,2-4.55,2a76.18,76.18,0,0,1-9.11-.37,2.37,2.37,0,0,1-1.42-2.34c-.12-3-.12-9.48-.12-12.31,0-.18.18-.49.31-.49,2.28-.06,7.38-.06,9.23.12a2.14,2.14,0,0,1,2.09,1.78,13,13,0,0,1,.49,2.52,2.49,2.49,0,0,0,2.09-.06c-.06-1.54-.12-3.32-.12-5.6a43.82,43.82,0,0,1,.43-5.78,2.86,2.86,0,0,0-2-.18,17.38,17.38,0,0,1-.68,2.46,2.19,2.19,0,0,1-2.09,1.85c-2.22.18-7,.18-9.41.12-.18,0-.31-.25-.31-.43,0-2.77,0-9.6.06-13,0-.31.31-1,.74-1.17.8-.06,8.24-.06,9.41,0,2,.18,2.58.86,3.08,2.34a22.14,22.14,0,0,1,.68,3.75,2.59,2.59,0,0,0,1.91-.12,62.47,62.47,0,0,1,1.11-8.43c0-.06-.18-.25-.25-.31-1.29.18-4.49.25-6.83.25H420.69c-3.45,0-6.65-.25-8.18-.25-.25.31-.37,1.48-.06,1.72Z" transform="translate(-205 -210.66)"/><path class="cls-1" d="M206.51,380a25.71,25.71,0,0,1,3.57.55c1,.31,1.6.86,1.66,2.58.12,2.28.06,6.28.06,14,0,6.58,0,12-.12,14-.18,2.22-.62,2.77-2,3.14-1,.25-2.83.37-3.94.49-.31.18-.25,1.6.06,1.78,4.06-.12,11.26.18,14,.18a24.47,24.47,0,0,0,9.54-1.54c4.68-2,7.69-5.48,7.69-10.58,0-5.41-3.88-8.37-8.68-9.48a.13.13,0,0,1,0-.25c3.57-1.48,6-4.37,6-7.88,0-7.26-6.65-8.61-10.83-8.61-4,0-6.34.12-9.91.12s-5.66-.18-7.08-.18a2.1,2.1,0,0,0-.06,1.72Zm13.29.49c5.85,0,9.17,2.46,9.17,7.81a6.36,6.36,0,0,1-2.89,5.72c-.74.43-2,.74-5,.74-1.72,0-3.14-.06-3.81-.12a.4.4,0,0,1-.31-.31c0-4.37.12-10.89.18-12.67a1.39,1.39,0,0,1,.49-1,12.2,12.2,0,0,1,2.15-.18Zm3.51,33.84c-1.42,0-3.69-.18-4.74-.86a3.6,3.6,0,0,1-1.42-2.34c-.18-2.52-.18-10-.18-13.91,0-.12.18-.25.31-.25a20,20,0,0,1,3-.12c7,0,11.14,3.2,11.14,9s-3.14,8.43-8.06,8.43ZM277.94,380c1.23.12,2.4.31,3.32.49,1.54.37,2,1.11,2,2.83.06,1.91.06,8.06.06,14.34,0,3.38-.06,11.75-.12,13.17-.12,2.34-.62,3.08-2.09,3.38-.8.18-1.78.31-3.14.49a1.84,1.84,0,0,0,0,1.78c1.17,0,3.81-.18,7.81-.18s7,.18,8.18.18c.31-.25.43-1.54.12-1.78-1.42-.18-2.52-.37-3.45-.55-1.42-.31-1.85-.86-2-3s-.12-7.75-.12-11.14c0-.06.12-.37.25-.37.86,0,3.51-.06,4.37.06a2,2,0,0,1,1.54.92c2.34,3.32,6.09,9.48,8.43,12.24a8.43,8.43,0,0,0,3,2.46c2.28,1.11,7.2,1.29,9.84,1.17.37-.12.49-1.54.37-1.72-3.69-.49-4.55-.8-7.08-3.38a101.71,101.71,0,0,1-10-13.29.41.41,0,0,1,.12-.43c3.69-1.66,7-4.74,7-9.91s-3.81-9.48-11-9.48c-2.46,0-5.66.12-10.21.12-1.91,0-5.6-.18-7.08-.18a2.08,2.08,0,0,0-.12,1.72Zm13.35.43c6.58,0,9.54,3.38,9.54,9.17,0,4-2,6.21-4,7.14-1.17.49-3.81.62-7.94.49a.33.33,0,0,1-.31-.31c0-4.8,0-13.17.12-15.26a1.45,1.45,0,0,1,.43-.92,7,7,0,0,1,2.15-.31Zm56.18,34.27a2.25,2.25,0,0,0,0,1.78c1.17,0,3.08-.18,6.58-.18s6.58.18,7.88.18a3,3,0,0,0,.12-1.78,22.51,22.51,0,0,1-3-.49c-1.91-.49-2-1.17-2-2.22.12-1.48,2.09-6.65,3.32-10,.06-.18.37-.55.62-.55.74-.06,1.17,0,5.11,0,2.77,0,4.92-.06,5.78,0a.92.92,0,0,1,.55.43c1.11,2.77,3,7.94,3.69,10.58a1.14,1.14,0,0,1-.68,1.54,19.25,19.25,0,0,1-3.38.68,2.55,2.55,0,0,0,.06,1.78c1.29-.06,5-.18,8.06-.18,2.77,0,5.91.12,7.51.18.18-.25.37-1.6.12-1.78-4.43-.55-4.86-.86-6.65-5-2.15-5.11-9-24.61-10.21-28.12-.43-1.17-.74-2.28-1-3.2-.18,0-.8.06-2,.06-1,0-1.78-.06-2-.06a19.18,19.18,0,0,1-1,3.51c-1.35,3.94-7.14,19.63-10.28,27.07-2,4.74-2.77,5.17-7.2,5.72Zm19.26-29.9c1,2.65,3.32,9.48,4.55,13.29a.34.34,0,0,1-.18.49c-.62.06-2.65.06-4.12.06-2.34,0-4.31,0-4.92-.06-.18-.06-.25-.18-.25-.43,1-3.26,3.57-10.21,4.61-13.29.06-.12.25-.06.31-.06Zm50.76,20.92c-.31-.18-1.78.18-1.91.55.18,2.09,1.17,8.43,1.72,9.23a22.65,22.65,0,0,0,8.86,1.91c8.68,0,13.66-5.35,13.66-11.38,0-4.49-2.71-7.08-5.91-9.11-2.09-1.23-5.17-2.71-7.63-4.31-2.58-1.78-4.18-3.57-4.18-7a6.26,6.26,0,0,1,6.46-6.28,8.4,8.4,0,0,1,5,1.29c1.48,1,2,2.71,2.4,6.34.18.31,1.6.31,1.78-.06a79.87,79.87,0,0,1,1-8.49c-2.58-.25-5.11-1-9.35-1-6.71,0-12.12,3.81-12.12,10.4,0,5.54,3.69,8.55,9.17,11.69s8.06,5.17,8.06,9.23c0,4.61-3.45,6.46-6.58,6.46a10,10,0,0,1-6-1.66c-2.09-1.48-3.32-3.94-4.43-7.75Zm56.79,0c-.31-.18-1.78.18-1.91.55.18,2.09,1.17,8.43,1.72,9.23a22.65,22.65,0,0,0,8.86,1.91c8.68,0,13.66-5.35,13.66-11.38,0-4.49-2.71-7.08-5.91-9.11-2.09-1.23-5.17-2.71-7.63-4.31-2.58-1.78-4.18-3.57-4.18-7a6.26,6.26,0,0,1,6.46-6.28,8.4,8.4,0,0,1,5,1.29c1.48,1,2,2.71,2.4,6.34.18.31,1.6.31,1.78-.06a79.86,79.86,0,0,1,1-8.49c-2.58-.25-5.11-1-9.35-1-6.71,0-12.12,3.81-12.12,10.4,0,5.54,3.69,8.55,9.17,11.69s8.06,5.17,8.06,9.23c0,4.61-3.45,6.46-6.58,6.46a10,10,0,0,1-6-1.66c-2.09-1.48-3.32-3.94-4.43-7.75Z" transform="translate(-205 -210.66)"/><path class="cls-1" d="M209.49,333a1.07,1.07,0,0,0,1.11,1.29h6.91a1.14,1.14,0,0,0,1.11-.94l2.58-18.11h.12l9.9,19a1.27,1.27,0,0,0,1,.64h1.05a1.37,1.37,0,0,0,1-.64l9.84-19h.12l2.64,18.11a1.19,1.19,0,0,0,1.11.94h6.91A1.07,1.07,0,0,0,256,333l-6.62-39.38a1.12,1.12,0,0,0-1.05-.94h-.94a1.29,1.29,0,0,0-1,.59L232.82,318.6h-.12L219.1,293.28a1.29,1.29,0,0,0-1-.59h-.94a1.12,1.12,0,0,0-1.05.94L209.49,333ZM285,334.3h6.45a2.18,2.18,0,0,0,2.11-1.41l2.11-4.69h15.94l2.11,4.63c.53,1.11,1,1.46,2.05,1.46h6.5a1,1,0,0,0,1-1.52l-18.34-39.44a1.19,1.19,0,0,0-1-.64h-.59a1.19,1.19,0,0,0-1,.64L284,332.78a1,1,0,0,0,1,1.52Zm14.18-14.06,4.39-9.67h.06l4.45,9.67Zm54.67,13A1.11,1.11,0,0,0,355,334.3h7a1.15,1.15,0,0,0,1.11-1.11V318.25h4l7.79,15.53a1.08,1.08,0,0,0,.94.53h7.79a1.11,1.11,0,0,0,1-1.7l-8-14.88c5.1-2.05,8.67-6.39,8.67-11.78a12.74,12.74,0,0,0-12.77-12.66H355a1.11,1.11,0,0,0-1.11,1.11v38.79Zm9.2-22.38v-9.14h8.67a4.49,4.49,0,0,1,4.45,4.45,4.7,4.7,0,0,1-4.45,4.69Zm55.84,22.38A1.15,1.15,0,0,0,420,334.3h7a1.15,1.15,0,0,0,1.11-1.11V294.4a1.15,1.15,0,0,0-1.11-1.11h-7a1.15,1.15,0,0,0-1.11,1.11v38.79Zm44.94,1.11h6.45a2.18,2.18,0,0,0,2.11-1.41l2.11-4.69h15.94l2.11,4.63c.53,1.11,1,1.46,2.05,1.46h6.5a1,1,0,0,0,1-1.52l-18.34-39.44a1.19,1.19,0,0,0-1-.64h-.59a1.19,1.19,0,0,0-1,.64l-18.34,39.44a1,1,0,0,0,1,1.52ZM478,320.24l4.39-9.67h.06l4.45,9.67Z" transform="translate(-205 -210.66)"/><path class="cls-1" d="M207.22,231.81a21.07,21.07,0,1,0,21-21.15,20.91,20.91,0,0,0-21,21.15Zm9.38,0a11.69,11.69,0,1,1,11.66,11.66,11.79,11.79,0,0,1-11.66-11.66Zm63,16.52c1.35,1.35,5.57,4.51,13.18,4.51,8.61,0,13.83-6.09,13.83-12.13,0-8-7.27-11.54-11.84-13.36s-6.39-3.52-6.39-5.68c0-1.58,1.58-3,3.69-3,3.57,0,7.85,3.22,8.38,3.52s1.58-.12,2-.76l3-4.51a1.48,1.48,0,0,0-.35-1.88,21.79,21.79,0,0,0-12.54-4.39c-9,0-13.54,5.86-13.54,11.66,0,7,6.33,11,11.37,13,4,1.58,6,3.46,6,5.92,0,2.05-1.7,3.52-4,3.52-3.87,0-8.09-3.11-8.32-3.22a1.51,1.51,0,0,0-2,.35l-2.75,4.86c-.47.82-.29,1.05.29,1.64Zm59.36,2.52a1.39,1.39,0,0,0,1.41,1.41h6.86a1.43,1.43,0,0,0,1.41-1.41V233.4l13.54,18.4a1.6,1.6,0,0,0,1.05.41h8.09A1.38,1.38,0,0,0,372.4,250l-14.94-19.45,13.71-17.17a1.35,1.35,0,0,0-1.05-2.17h-7.38a1.74,1.74,0,0,0-1.11.59l-13,16.23V212.65a1.43,1.43,0,0,0-1.41-1.41h-6.86a1.39,1.39,0,0,0-1.41,1.41v38.21Zm60.36,1.41h6.45a2.18,2.18,0,0,0,2.11-1.41l2.11-4.69H425.9L428,250.8c.53,1.11,1,1.46,2.05,1.46h6.5a1,1,0,0,0,1-1.52L419.22,211.3a1.19,1.19,0,0,0-1-.64h-.59a1.19,1.19,0,0,0-1,.64L398.3,250.74a1,1,0,0,0,1,1.52Zm14.18-14.06,4.39-9.67h.06l4.45,9.67Zm54.09,13a1.11,1.11,0,0,0,1.11,1.11h7a1.15,1.15,0,0,0,1.11-1.11V236.21h4l7.79,15.53a1.08,1.08,0,0,0,.94.53h7.79a1.11,1.11,0,0,0,1-1.7l-8-14.88c5.1-2.05,8.67-6.39,8.67-11.78a12.74,12.74,0,0,0-12.77-12.66H468.68a1.11,1.11,0,0,0-1.11,1.11v38.79Zm9.2-22.38v-9.14h8.67a4.49,4.49,0,0,1,4.45,4.45,4.7,4.7,0,0,1-4.45,4.69Z" transform="translate(-205 -210.66)"/></svg>