<?xml version="1.0" encoding="UTF-8"?>
<svg xmlns="http://www.w3.org/2000/svg" id="_Слой_2" viewBox="0 0 75.38 60.1">
  <defs>
    <style>.cls-1{fill:#fff;}</style>
  </defs>
  <g id="_Слой_1-2">
    <path class="cls-1" d="m11.93,35.78h12.77c5.17,0,9.38,4.21,9.38,9.38v3.38c0,4.53,2.62,8.49,6.47,10.39h-8.18c-2.2-.17-4.38-.58-6.37-1.47-8.06-3.99-13.69-12.15-14.06-21.67m29.53-4.69h16.96v20.7h0c.06,3.04,1.72,5.68,4.17,7.13h-17.56c-5.49-.32-9.79-4.88-9.79-10.39v-3.38c0-5.82-4.73-10.55-10.55-10.55h-13.38s-10.12.01-10.12.01v-8.74C1.2,12.27,12.28,1.2,25.89,1.2h3.6c-10.19,3.26-17.57,12.81-17.57,24.08v.15h23.81v-12.74c0-6.34,5.13-11.48,11.46-11.5h.07c3.16,0,6.02,1.29,8.1,3.37,1.6,1.6,2.74,2.87,3.17,5.19,0,0,0,.01,0,.02.02.14.05.28.07.42,0,0,0,.01,0,.01.65,3.13,3.02,5.63,6.09,6.46.7.19,1.45.29,2.21.29,4.68,0,8.48-3.79,8.48-8.48S71.57,0,66.89,0h-1.62s-39.39,0-39.39,0C11.61,0,0,11.61,0,25.88v9.15c.14,13.85,11.42,25.03,25.29,25.03l4.01.03h37.54s.04,0,.06,0c.01,0,.03,0,.04,0h.04c4.58-.04,8.29-3.72,8.39-8.3h0v-20.7h0v-1.2h-33.92v1.2Z"></path>
  </g>
</svg>
