<?xml version="1.0" encoding="UTF-8"?>
<svg id="Ebene_1" xmlns="http://www.w3.org/2000/svg" version="1.1" viewBox="0 0 283.5 141.7">
  <!-- Generator: Adobe Illustrator 29.1.0, SVG Export Plug-In . SVG Version: 2.1.0 Build 142)  -->
  <defs>
    <style>
      .st0 {
        fill: #1a1a18;
      }
    </style>
  </defs>
  <path class="st0" d="M86.8,79c.8-1.2,1.2-2,1.2-2.5s0-.3-.2-.3c-.5,0-1.2.8-2.3,2.3-3.6,5.1-10.7,14.2-16.3,14.2s-5.3-4.2-5.3-7.8,1.1-8.2,1.7-10.5c.3-1.1.6-2.1,1-3.2,1.3-1.7,6.1-11.4,6.1-14.5s0-.7-.3-.8c-.2,0-.4-.1-.4-.1-2.7,0-7.4,12.8-7.4,14.8-4.2,7.6-16.9,21.8-24.3,21.8s-5.3-2.6-5.3-9.6,0-2,.1-3.2c7.1-13.6,12.6-27.9,17.4-42,1.1-2.8,1.4-4.7,1.4-5.8s-.1-1.1-.4-1.1c-1.1,0-2.9,2.3-5.1,6.3-5.1,9.4-12.6,24.4-14.8,36.7-5.9,11.8-12.5,22.6-20.2,31.9-1.3,1.6-2.7,2.3-3.9,2.3s-.6,0-1.1-.1c-.2,0-.3,0-.4,0-.4,0-.5.2-.5.6,0,.8.8,2.2,2.1,2.7.4.1.8.2,1.3.2,2.2,0,4-1.6,5.6-3.5,6.5-7.7,11.3-16.5,16.3-25.6.4,8.5,3.2,11.7,7.4,11.7,7.3,0,17.7-9.9,22.5-17-.5,1.9-.7,4-.7,6.1,0,4.4,1.9,11.2,7.6,11.2s13.4-9.4,17-14.8M46.5,46c-2.5,6.7-5.4,13.4-8.5,20.2,2.3-6.8,5.4-14,8.5-20.2M118.2,76.5c-.9,1.5-5.7,7.2-8.5,7.2s-1.6-.6-2-1.8c-.6-2.1-4.7-4-4.7-5.6s.5-1.5,1.1-2c0,0,0-.1,0-.2,0-.5-.6-1-1.3-1s-1.6.6-2.1,2.2c-1.6,4.7-4.2,7.1-6.1,7.1s-.5,0-.6,0c.2-.6.2-1.2.3-2,0-2.3-.6-4.4-2.2-6.1-.4-.6-.8-.9-1.3-.9-3.6.2-5.7,5-5.7,9s1.1,5.1,3.7,5.1,3.4-1.1,4.3-2.8c.2-.3.4-.6.5-1.1.1,0,.4,0,.8,0,2.3,0,4.9-1.8,7.1-5.6,1.3,1.4,4,2,5.2,4.7.8,1.6,1.8,2.4,3.1,2.4,3.3,0,7.8-4.9,9.1-7.2.4-.5.5-1,.5-1.3s-.1-.5-.4-.5-.5.2-.7.6M88.2,85.4c-.8,0-1.3-.5-1.3-1.3,0-2.3,3-6.4,3.6-7.3,0,.5,0,.9,0,1.4,0,1.6.3,2.8.8,3.6-.2.6-.4.9-.6,1.4-.5.8-1.4,2.1-2.5,2.2M121.1,75.2c.4.6.6,1.3.6,2,0,1.9-1.2,6.1-3.7,6.4-.8,0-1.3-.4-1.3-1.1,0-2,3-6.3,4.4-7.2M121.8,73.6c-.4-.6-.8-.8-1.4-.8-3.4.2-5.6,4.4-5.6,8s1.1,4.5,3.7,4.5,5.5-3.4,5.5-6.5-.7-3.8-2.2-5.2M195.9,79c.8-1.2,1.2-2,1.2-2.5s0-.3-.2-.3c-.5,0-1.2.8-2.3,2.3-3.6,5.1-10.7,14.2-16.3,14.2s-5.3-4.2-5.3-7.8,1.1-8.2,1.7-10.5c.3-1.1.6-2.1,1-3.2,1.3-1.7,6.1-11.4,6.1-14.5s0-.7-.3-.8c-.2,0-.4-.1-.4-.1-2.7,0-7.4,12.8-7.4,14.8-4.2,7.6-16.9,21.8-24.3,21.8s-5.3-2.6-5.3-9.6,0-2,.1-3.2c7.1-13.6,12.6-27.9,17.4-42,1.1-2.8,1.4-4.7,1.4-5.8s-.1-1.1-.4-1.1c-1.1,0-2.9,2.3-5.1,6.3-5.1,9.4-12.6,24.4-14.8,36.7-5.9,11.8-12.5,22.6-20.2,31.9-1.3,1.6-2.7,2.3-3.9,2.3s-.6,0-1.1-.1c-.2,0-.3,0-.4,0-.4,0-.5.2-.5.6,0,.8.8,2.2,2.1,2.7.4.1.8.2,1.3.2,2.2,0,4-1.6,5.6-3.5,6.5-7.7,11.3-16.5,16.3-25.6.4,8.5,3.2,11.7,7.4,11.7,7.3,0,17.7-9.9,22.5-17-.5,1.9-.7,4-.7,6.1,0,4.4,1.9,11.2,7.6,11.2s13.4-9.4,17-14.8M155.7,46c-2.5,6.7-5.4,13.4-8.5,20.2,2.3-6.8,5.4-14,8.5-20.2M201,75.2c.4.6.6,1.3.6,2,0,1.9-1.2,6.1-3.7,6.4-.8,0-1.3-.4-1.3-1.1,0-2,3-6.3,4.4-7.2M201.6,73.6c-.4-.6-.8-.8-1.4-.8-3.4.2-5.6,4.4-5.6,8s1.1,4.5,3.7,4.5,5.5-3.4,5.5-6.5-.7-3.8-2.2-5.2M218.3,78.9c.2-.4.4-.6.4-.8,0-.8-.7-1.5-1.5-1.5s-.4,0-.6.3c-1.3,1.6-4.9,5.6-6,5.6s-.3-.1-.3-.4c0-1.1,1-4.2,2.4-5.8.4-.5,1.2-2.4-.1-2.4-3,0-4.8,5.1-4.8,7.5s.7,3.2,2.8,3.2c2.5,0,4.7-1.9,6.4-4,.8,4.2,3,6,7.9,6s5.8-.8,9.8-1.6c9-1.8,23.7-2.4,29.6-2.4s5.2.1,5.6.4c.5.6,1.4.9,2.6.9s.8,0,1.3-.1c1.4-.5,2.1-1,2.1-1.5s-.5-.8-1.6-1.3c-1.3,0-2.8-.1-4.5-.1-8.8,0-28.3,1.1-39.1,3.3-2.2.5-4.4.8-6.4.8-3.4,0-6-1.2-6-6.1"/>
</svg>